<svg id="Layer_2" data-name="Layer 2" xmlns="http://www.w3.org/2000/svg" viewBox="0 0 423.15 773.88"><defs><style>.cls-1{fill:#5c052f;}</style></defs><title>tree</title><path class="cls-1" d="M276.87,564.25a27.9,27.9,0,0,1,0,10c-2.45,14.14-.5,28.7-1.07,43-.46,11.65-.93,28.55-.85,50.49l-3.18,61.35a20.36,20.36,0,0,1-2.57,12.14,19.86,19.86,0,0,1-6,6.39,64,64,0,0,1-20,9L210.82,769.4a41.92,41.92,0,0,0-20.45,18.75L204,782.82l30-2.77,19.72-2.43,9.35-1.4q3.3-1.29,6.72-2.77c1.8-.77,3.54-1.56,5.23-2.34L262,786l-4.85,6.33a20.77,20.77,0,0,0-2.82,17.53c2-1.94,4.17-4,6.61-6a103,103,0,0,1,10.17-7.46,35.49,35.49,0,0,1,4.23-2.26,34.8,34.8,0,0,1,5-1.79q4.1-2.31,8.4-5,4.95-3.14,9.29-6.25l10-4c4.14-.57,8.71-1,13.66-1.2a134.69,134.69,0,0,1,15.74.35l17.89.85a42.92,42.92,0,0,1,23.44,5.75l8.94,5.33,8.52,3.62a70.85,70.85,0,0,0-9.37-11.93,71.6,71.6,0,0,0-6.6-6,116,116,0,0,0-20.45-12.36c-3.17-1.49-6.23-2.75-9.17-3.83l-9.79-5.76a32,32,0,0,1-6.82-6.6,32.34,32.34,0,0,1-4.43-7.8q-2.05-9.4-4.09-18.83a307.24,307.24,0,0,1-2.77-34.3c-.26-10.7.25-13.7-.43-24.07-.66-10.14-1.46-12.17-3.15-27.52-1-9.07-1.62-15.43-2.39-27-.67-10.19-.15-6.25-1.16-26.82-.42-8.39.69-16.82.19-25.2a16.93,16.93,0,0,1,1.61-9.33,12.17,12.17,0,0,1,1.15-1.79c1.38-1.76,1.54-2.2,1.83-2.47a10.13,10.13,0,0,1,2.13-1.28s.79-.44,3-1.92c2.85-1.92,6.27-7,8.68-10,4.21-5.32,7.58-7.25,7.29-7.65-.62-.87-12.76,13.24-31.61,16.74-14.1,2.62-34.87-.15-38.26-.76-.7-.13-2.74-.3-6.82-.64-3.15-.26-3.86-.28-4.26.21-.22.28-.81,1.28,3.62,8.74a52.2,52.2,0,0,0,4.4,6.78,79.83,79.83,0,0,1,6.19,7.61,5.4,5.4,0,0,1,.7,1.16A27.07,27.07,0,0,1,276.87,564.25Z" transform="translate(-85.07 -36)"/><path class="cls-1" d="M249.07,518.35a10.45,10.45,0,0,1,3.94,3.08,15.16,15.16,0,0,1,1.91,3.93,22.22,22.22,0,0,0,4.05,6.3l1.49,3.19c6.74,3.35,21.83,9.62,40.26,6.82a62.31,62.31,0,0,0,22.8-7.88s3.55-2.1,19-14.53h0a14.76,14.76,0,0,0,4.47-.38,15,15,0,0,0,5.12-2.35l12.78-2.13a33.24,33.24,0,0,1,4.6-1.33c3.4-.72,5.17-.55,8.18-.8,4.28-.35,10.6-1.53,10.65-3,0-1-2.9-.79-4.69-3.2-2.41-3.25-.29-8-1.7-8.52-.69-.26-1.3.83-3.83,2.13a17.94,17.94,0,0,1-3.2,1.28,117.85,117.85,0,0,1-14.49,3.41c-4.77.69-4.46-.1-7.66.64-.52.12-1.06.26-1.28,0-.68-.82,3.31-3.75,5.54-8.44s2.2-20.59,1.91-15.42l.64-8.52L347,471.58a35.91,35.91,0,0,1-6,21.52q-4.87,5-10,10-5.37,5.26-10.66,10.23a39.35,39.35,0,0,1,1.07-10.87,38.94,38.94,0,0,1,2.34-6.81l-8.31-14.28a11.1,11.1,0,0,1-5.11,2.13c-1.32.19-3.69.52-5.32-.85-.92-.77-.79-1.39-1.5-1.92-.94-.71-2.85-.85-7,1.49l-21.4,4.9s.6,6,.6,6l1.42,14.16.21,9.05a153.86,153.86,0,0,1-19-14.7c-3.81-3.47-7.21-6.91-10.22-10.23L234.68,498c3.79,4.77,7.59,9.95,11.3,15.55Q247.57,516,249.07,518.35Z" transform="translate(-85.07 -36)"/><path class="cls-1" d="M398.51,443c0-.86-10.23,24.92-10.23,24.92l-3.19,4.69c-1.48,5.71-3.17,12.22-4.66,17.93-.48,1.86-1.89,7.26-2.37,9.12,2.46,5.74,5.15,11.88,5.36,11.8,0,0,0,0,0-.06,0-1.12,6.77-2.15,6.77-2.15a55.9,55.9,0,0,0,7.82-1.8l11.35-5.23,20.45,3.62a72.54,72.54,0,0,0,17.05-1.7l9.37-2.35,11.5-3.41-20.24,3a110,110,0,0,1-12.56.64c-3.18,0-6.17-.18-8.95-.43l-9.12-2.6,8.27-7,10.22-9.8,6.61-8.94L429.1,483.88l-7.59,6.24a58.2,58.2,0,0,1-19.17,10.44l-11.93,3.83a2.57,2.57,0,0,1-4.51-1.73q4.92-4.49,10-9,3.85-3.42,7.69-6.73l16.07-19.12,8-12.41,5.76-13.63q-6,9.48-11.93,19L403.19,481.6l-7.45,6.6a31,31,0,0,1-7,5.33,30.27,30.27,0,0,1-4.76,2.11A154.89,154.89,0,0,1,388,477.23c1.19-4.15,2.49-8,3.84-11.62l3.4-8.43Z" transform="translate(-85.07 -36)"/><path class="cls-1" d="M398.72,314.36l-16.19,42.18L380,323.74l-1.91,41.33-9.16,17L357,417.05,351,449,347,471.58l-1.28,11.29,13.21-1.7s2.35-19.39,2.35-21.94,2.55-27.7,2.55-27.7l6-23.86,8.31-19.17,10.22-22.58,10.44-24.71L409,322.46,420,309.68l12.79-4.26H449l13.2-3,5.54-2.55A84.91,84.91,0,0,1,455.6,302a83.34,83.34,0,0,1-9.8.42l-5.75-2.55,15.34-8.52,10.47-11.05,7.42-10.26-9.16,7c-2.48,2.34-5.65,5.31-9.36,8.75-2.64,2.46-4.5,4.15-5.55,3.61s-.83-2.57-.64-4.05a59.12,59.12,0,0,1,.64-9.16,48.41,48.41,0,0,1,3.19-12.14l5.54-10.23,2.56-7.24-11.93,20.45-3.41,22.58-11.5,9.8c-9.75,2.79-12.45,2.33-13,1.28-.44-.86.6-2.06,2.13-4.9a45.29,45.29,0,0,0,3.62-8.73q3.84-8.75,7.67-17.47l8.1-12.36,9.8-8.95,9.37-9.37h6.39l8.95,2.13,6.83.72,8.72-1.15,6.75-3.06,9.23-4.18L494.59,236l-9.8,1.28-6.61-.43-6.82-1.49L466,233.41s6.39-9.8,6.82-11.08c.36-1.09,5.06-8.68,6.7-11.69.29-.53.54-1.09.54-1.09,1.55-3.17,2.66-5.81,3.41-7.67l6.81-14.06c-1.21,1.51-2.89,3.69-4.78,6.41-3,4.25-5,7.7-7.28,11.72s-3.49,6.07-5.07,9.18c-.81,1.62-2.73,5.49-5.44,10.1a20.36,20.36,0,0,1-3,4.13,19.44,19.44,0,0,1-4.69,3.63l-5.92,5.77c-2.06,1.87-4.14,3.78-6.22,5.73q-2.06,1.92-4.05,3.83a19,19,0,0,1-.85-6.81c.17-2.66.8-3.38,2.56-8.95l3-10.65,1.28-13.64q1.18-10.22,2.38-20.45a65.61,65.61,0,0,1,2.82-7.86,64.7,64.7,0,0,1,4.48-8.56l5.23-7.44a35.7,35.7,0,0,0-13.68,18q-2.18,9.69-4.36,19.38-.45,5.7-.92,11.42-.85,5.22-1.7,10.44l-4,13.36c-.6,2-.5,3.35-1.1,7.73-.7,5.05-1.34,9.11-1.76,11.71L432,263.24l-5,10.22q-3.78,9.06-7.57,18.11a77.7,77.7,0,0,1-5.11,11.72A78.72,78.72,0,0,1,405,316.87c-.17-1.34-.29-2.75-.34-4.21a48.62,48.62,0,0,1,3.83-20.45,41.15,41.15,0,0,1,.57-11.95c.19-.94.45-2.11,1.56-5.95.87-3,2.14-7.22,3.83-12.35l1.27-6.31s1.28-6.43,1.29-6.47a44,44,0,0,1,3.41-9c.69-1.35,1.11-2,1.93-3.43.54-1,1-1.75,1.05-1.9,1.63-3,2.75-7.47,3.41-9.58a30.7,30.7,0,0,1,4.26-8.53s3.84-8.09,4.26-9.8,6-11.92,6-11.92l-14.38,23L420,234.26l-6-31.1c.67,15.24,1,26.74,1.06,31.34,0,.47-.06,2.58-.17,6.79a33.74,33.74,0,0,1-.55,6c-.17.85-.37,1.7-.47,2.11-.51,2.12-1,3.66-1.18,4.22-.49,1.54-1.26,4.13-2.53,8.81a62.33,62.33,0,0,0-2.34,7c-.72,2.7-.92,4.23-1.7,7.89-.41,1.91-1,4.69-1.92,8.09a53.86,53.86,0,0,1-4.69,19.39,54.65,54.65,0,0,1-2.55-4.9c-.75-1.62-2.27-3.89-2.56-6.82-.2-2-.53-5.09-1.07-8.95s-.79-5.16-1.16-8.05c-.29-2.33-.66-5.79-.86-10.11l.53-7.4-1.61,22.57a66.69,66.69,0,0,0,1.12,10.81,65.69,65.69,0,0,0,3,10.93Z" transform="translate(-85.07 -36)"/><path class="cls-1" d="M517.38,303.93" transform="translate(-85.07 -36)"/><path class="cls-1" d="M315.42,481.38a109.49,109.49,0,0,1,36-34.47q-1.93,10.72-3.86,21.45a18.43,18.43,0,0,0-2.49,1.38,20.54,20.54,0,0,0-4.26,3.69c-2.1,2.33-8.62,10.63-17,22.23Z" transform="translate(-85.07 -36)"/><path class="cls-1" d="M363,439.6c-.05.51,23-14.46,23-14.46,1.49-3.33,2.87-6.11,4-8.24,1.73-3.34,2.43-4.4,2.85-6.24a14.62,14.62,0,0,0-1.14-9.09,51.33,51.33,0,0,1-8.84-23.5c.6-1.34,1.21-2.68,1.82-4a13.41,13.41,0,0,0,1.62,5.64,13.82,13.82,0,0,0,6.57,5.9,13.44,13.44,0,0,0,5.36-4.76c.74-1.17,1.38-3.06,2.65-6.78.57-1.67,1-3.06,1.33-4,1.7-4,3.52-8.13,5.5-12.3,4.19-8.89,8.57-17.09,13-24.63q-7.66,20-15.34,40.05a84.56,84.56,0,0,1-3.55,22c-1.46,4.78-3.76,10.62-2.41,18.07a26.52,26.52,0,0,0,1.7,5.68s6.82-3.12,7.67-3.69,9.94-11.36,9.94-11.36l4.3-6.54v-5.13c-.81-2.31-1.79-5.37-2.68-9-2.68-10.91-3.09-20.75-2.75-20.79.16,0,.68,2.28,2.27,12.78l5.1,9.65,2.11,4,13-36.07s-2.56,20.17-2.56,21-4.83,16.72-5.4,18.44a148.09,148.09,0,0,1-6.53,13.66c-.85,1.13-13.35,14.48-13.35,14.48L403.83,426s3.13,2.84,5.4,2.28,9.09-2.28,11.08-2,11.36-10.23,11.36-10.23l8.24-12.21,6-8.24-9.57,18.81A24.63,24.63,0,0,0,430.25,426c2.46-.23,5.95-.59,10.14-1.18a69,69,0,0,0,9.46-1.66c2-.58,2.68-.93,10.51-4.26,7.29-3.1,7.64-3.18,7.67-3.12.21.44-19,10.51-19,10.51l-14.49,3.41a50.67,50.67,0,0,1-10.23,2.84c-2.14.36-4.39.59-12.54.56-8.5,0-20.15-.31-20.15-.3l0,0c.85.28-30.1,22.18-30.1,22.18Z" transform="translate(-85.07 -36)"/><path class="cls-1" d="M275.06,487.13,305,482.66a114.84,114.84,0,0,1-7.39-24c-1.13-6.44-.83-9.68-.57-11.36.52-3.3,2-8.52,2-8.52l5.11-5.4,4.55-5.68a31.67,31.67,0,0,1,12.21-7.1,55.54,55.54,0,0,1,6.54-4.55c3.33-2,4.24-2,6.24-3.69s2.36-2.62,5.12-6c1.19-1.45,3-3.54,5.39-6l15.63-17.33-21.88,19.32a48.38,48.38,0,0,1,6-31l7.49-17.9q-4.68,9.63-10.05,19.6-2.25,4.18-4.54,8.24a47.46,47.46,0,0,1-2.23,15.21,45.52,45.52,0,0,1-2.67,6.59l-4.56,6.66-6.16,5.06-9.7,2.55a12.11,12.11,0,0,1-1.67-6,12.61,12.61,0,0,1,1.67-6,192.73,192.73,0,0,0,8.28-19.31s6-10.8,6.53-11.93,9.94-18.75,9.94-18.75l8.24-13.92q5.4-10.22,10.79-20.45l23-36.07,8-15.63s9.94-26.13,10.23-27S399,225.17,399,225.17l2.28-17.32-10.8,37.78q-4.83,11.49-9.65,23a7,7,0,0,1-1.14-2.55,7.51,7.51,0,0,1,.67-4.94c1.4-5.82,2.62-10.78,3.59-14.66,2-7.85,2.65-10.44,3.41-13.07,1.25-4.37,1.46-4.7,2.27-7.67a128.74,128.74,0,0,0,2.84-13.35c.89-5,3.07-12.35,8.81-22.15l8.23-30.4,4.83-15.9c-3.72,12.33-8.2,25.46-13.63,39.2-4.33,10.93-8.82,21.16-13.35,30.67-1.88,15.74-4.59,34.16-7.39,34.09-1.17,0-1.87-3.35-2.27-4.55-.28-.85,4.55-22.15,4.55-22.15s2.27-13.07,2.27-13.92,4.83-26.7,4.54-27.84-1.42-11.36-1.42-11.36L384,156.15c.49,5.21.86,10.72,1,16.5.14,4.41.16,8.67.1,12.76q-2,11.93-4,23.86a54.13,54.13,0,0,1-8.52-33.52l-.85-6.82-.51,15.65a71.49,71.49,0,0,0,1.93,15.88,70.45,70.45,0,0,0,4,11.93c.67,2.46,1.33,4.93,2,7.39,0,0-4.83,13.92-4.83,14.48s-1.7,13.92-1.7,13.92L374,274l-27,44V298.17c0-.85,8.53-34.08,8.53-34.08l-10.85,31-3.07,31-9.94,17-3.13,2.56s2.27-53.4,2.84-54.25,1.71-20.17,2-21.31,7.95-20.73,9.09-21.87,10.23-9.37,10.23-9.37l6.81-6.54,6.54-8.23L349.58,237.1l-.18-9.92,6.15-21,5.68-16.47L349.09,215.2a52.11,52.11,0,0,0-3.42,23.32,8.93,8.93,0,0,1-.92,4c-1.24,2.48-3.15,3.14-5.11,5.11a15,15,0,0,0-3.69,6.54,38.7,38.7,0,0,0-4.55,13.91c-.44.81-1.1,1.8-1.7,1.71-1.53-.24-1.65-7.27-1.71-10.79-.09-5.48.29-8.91.57-13.35.22-3.39.43-8.23.37-14.16a186.41,186.41,0,0,1,3.9-27.4,157.3,157.3,0,0,1,7.66-25.76,146.28,146.28,0,0,1,16.76-30.68L345.6,162.12a115.46,115.46,0,0,0-6.25,10.79,113.54,113.54,0,0,0-6.24,14.77c-.52,2.61-1.12,5.31-1.82,8.07A169.29,169.29,0,0,1,326,213a60.91,60.91,0,0,1,1.71-26.13c2.83-12.17,4.65-20.49,5.68-25.28.64-3,1-4.8,1.14-5.4L337.65,140a54.51,54.51,0,0,0,18.46-21.87q4.13-11.79,8.24-23.58l-9.94,21.31a49.31,49.31,0,0,1-15.34,17.89l1.71-13.06,3.69-25.57q-3.84,13.78-7.67,27.55-1.14,8.1-2.27,16.19l-5.4,22.44c-1.76,1.7-2.88,1.49-3.13,1.42-1.74-.43-3-3.81-2.27-8.52.33-2.15.89-6.11,1.42-11.08a360.79,360.79,0,0,0,1.71-46.29l11.36-10.23,16.47-26.13q-7.51,9.95-15.05,19.88L328.85,90.54,332,67.81l6-31.81L330,64.69l-5.11,28.69a119.38,119.38,0,0,1-9.37-33.8l3.12,28.68,4.83,11.65a85,85,0,0,1,.43,15.63,84.05,84.05,0,0,1-2.14,14.19l-2,10.8a26.19,26.19,0,0,1-3.7-4.83c-3-5-3.36-9.67-3.77-12.86-1.55-12-6.52-22.29-6.45-21.79l1.42,10.51,8.52,44.87,4,18.47v19.31l-2.28,4.55a32.63,32.63,0,0,1-4.26-7.67c-2.56-6.64-.76-8.81-2.84-15.91-1.61-5.51-3.12-5.7-6.1-13.68a81.24,81.24,0,0,1-3-9.89A90.77,90.77,0,0,1,295,136.27c-2-6.74-4.82-16.28-3.23-27.43.05-.41.45-2.49,1.25-6.66,2.39-12.54,3.12-13.87,3.12-16.76,0-.85-1.7-16.19-1.7-16.19l-1.42,15.06a26.18,26.18,0,0,1-4.55,16.19q-4.39-25.56-8.8-51.13l.85,20.74q1.74,9.27,3.41,18.74,2.41,13.8,4.54,27.27l4.62,27.29q2.1,7.37,4.19,14.75s8.52,21,8.52,21.59.28,4.26.28,4.26l-19.31-33.52L275.06,132s-7.85-20.17-8.42-21.59-6-38.63-6-38.63c.34,8.57.89,17.48,1.7,26.7q.86,9.8,2,19a22.22,22.22,0,0,1-12.5-10.22L238.8,92.81l13.78,21.44,6.39,6.4,9.66,9.37q5.53,8.52,11.08,17l13.35,21.59L297.6,178l9.09,17.61a118.71,118.71,0,0,1,7.1,21,70.28,70.28,0,0,1,2,11.36,116.52,116.52,0,0,1,0,15.34v29l-16.76-19-10.79-18.46-1.14-7.38,15.34-30.11-16.76,25s-8.52-29-8.52-29.82-3.41-37.21-3.41-36.36,1.32,39.2,1.32,39.2S281.69,227.16,282,228s2.27,10.51,2.27,10.51-13.92-12.78-14.49-13.91S259,197.34,259,197.34l-5.68-21,4.54,28.4L265.5,224l-16.19-5.4s-6.53-3.41-7.67-3.69c0,0-.07,0-.08,0-.18.27,6.23,5.69,13.21,8.87s7.29.79,11.59,3.34c5.16,3.07,5.29,7.15,14.38,20.13l3.79,5.44L303,273.46l8.8,15.06a75.28,75.28,0,0,1,2.84,9.94,77.36,77.36,0,0,1,1.71,15.34,188.28,188.28,0,0,1-6.25,34.08,190.3,190.3,0,0,1-6.41,18.91,120.73,120.73,0,0,1-14.9,33.36l-7.1,14.48a48.56,48.56,0,0,0-3.51,7.45c-1.58,4.25-2.17,7.63-3.12,13.29,0,0-.28,1.67-1.6,11.54a43.17,43.17,0,0,1-6.27-11.38c-2.14-5.87-2.32-10.44-2.54-17.77a143.21,143.21,0,0,1,2.27-29.27h0v0s2.09-5.27,3.69-8.83c.74-1.66,1.86-4,3.4-6.81,1.14-4.19,2.53-8.67,4.27-13.35a154.72,154.72,0,0,1,8.23-18.47s7.1-21.87,7.1-22.72,9.66-31,9.66-31-16.76,38.91-16.76,39.77S275.06,355,275.06,355l1.81-48,2.55-33.8-.28-22.73-6.25,64.48c-1.51,11.72-2.61,20.43-3.06,25.21a50.57,50.57,0,0,1-1.63,9.14c-.47,1.72-.95,3.1-1.28,4a8.12,8.12,0,0,1-2.26-1.7c-2.05-2.25-2.18-5.15-2.28-7.11-.2-3.72-.83-7.43-.9-11.16-.1-4.45-.79-15.58-3.08-42.81q-.13,39.92-.28,79.82s1.13,23.89,1.42,23.73-1.71,20.58-1.71,20.58q-1.53,2.5-3.08,5a8.57,8.57,0,0,1-4.87-1c-2.82-1.63-3.6-4.65-4.86-8.42-2.5-7.52-2.36-4.44-5.65-14-1.26-3.66-2.77-8.45-4.22-14.17-1.13-8-2-16.52-2.6-25.6a324.33,324.33,0,0,1,0-39.48l10.9-15.66,10-23.63,3.09-16.69q-.35-8.94-.7-17.87a177.47,177.47,0,0,1-4.55,29.82c-2.74,11.35-5.1,16-6.74,18.89a55.09,55.09,0,0,1-12,14.35,238.47,238.47,0,0,0-4-24.15c-1.37-6.28-2.92-12.15-4.55-17.61,0,0,3.41-22.15,3.7-23s3.12-16.47,3.12-18.17,2-26.7,1.42-27.84S228,176.6,228,175.47s6.53-36.65,6.53-36.65l-7.67,29.26-10.79-45.45s5.68,47.72,6,48.29,5.12,25.28,5.12,25.28.28,23.86-.29,24.71-3.41,6.54-3.69,6.82-7.67-.57-7.1-1.7-6.25-23.3-6.25-25,1.7-35.79,1.7-35.79-2.84-40.33-3.12-41.19,3.69-11.93,3.69-13.06,1.42-25.57,1.42-25.57l-1.7-17.32-5.11,52.55s-8.53-33.81-8.53-32.95,7.39,45.16,7.39,45.16l1.7,31.1-.56,38.21L205,205l-3.69-12.5-5.68-19.6v-6.53l2-10.23s.28-14.2,0-15.05-2-11.65-2-11.65l-3.13-12.21s2.28,19,2.28,19.88-.29,11.93-.29,12.78-2,9.38-2,10.23V164l-7.1-25.7-1.13-11.08V84.29l1.42-10.8,6.53-11.64,5.4-18.18.85-5.4-7.1,19-5.68,11.08-3.41-17.89s-5.11-11.08-5.4-11.37,4.55,16.76,4.55,16.76l.85,27.56-9.66-11.08-6.53-18.75,4,19L178.59,88s2.84,26.13,2.55,27,0,11.37,0,11.37-9.09-9.09-8.8-10.51S165,103.32,165,102.18s-9.09-27.27-9.09-27.27L142.23,48.5l9.66,26.7L157.28,92l-5.68-3.41L136.26,77.19,121.78,60.43s14.48,24.14,15.34,24.43,11.64,8.23,11.64,8.23l9.94,6.54,8,16.19.56,3.41-19.88,1.7L122.91,111l21.87,13.06,9.66,2.28,16.76-2.84,10.51,13.63s4.54,17.89,4.54,18.46,16.2,52,16.2,52.84,6.81,18.74,6.81,18.74l2.27,8-2.27,1.42L197.05,230l-17.9-9.94-2.55-19.31L180.86,182s-3.41-27.27-3.41-26.13S178,184,178,184l-2.56,12.21s-19.31-49.42-19.31-48.57,15,48.86,15,48.86l3.12,12.78-.56,5.39-23.29-19.59-26.42-14.21-4-.85,17.9,12.5L153,201.6l7.1,5.68-7.67,4.26L139.1,213l-14.2-2s7.1,5.4,7.95,5.4,11.65.57,12.5.57,10.51-3.13,11.65-3.13a74.52,74.52,0,0,0,7.38-1.7s10.23,8.52,11.08,9.37,9.09,8.81,9.94,9.09,9.09,4.26,9.09,4.26L210.4,249l5.4,17.61s5.39,16.48,5.39,17.33.85,12.78.85,12.78l-21.58-10.51s-15.91-20.73-15.91-20.16-3.41-6.54-3.41-6.54L188,277.72a35.12,35.12,0,0,0,11.48,12.59,86.76,86.76,0,0,0,13.8,7.3c2.53,1,5.81,2.08,7.79,5,0,0,.14.21,2.43,4.05a126.52,126.52,0,0,1,1.14,28.69c-.56,7.32-3.45,29.16-2.56,21.87l-1.7,19.89,1.14,15.05q2.55,10.94,5.11,21.87L236,431.39l5.12,8.24,21,29Z" transform="translate(-85.07 -36)"/><path class="cls-1" d="M248.11,491.39l-10.44,8.53L223.61,498a37.26,37.26,0,0,0-17.28,15.31l-14.89,18.35a75.83,75.83,0,0,1,5.75-11.72,74.45,74.45,0,0,1,6-8.52q3.75-4.8,7.52-9.59l-.57-4.83-27.26,2.28-13.92,27.55L158.13,549l17.62-46-23.09,12-24.07,23.75a81.58,81.58,0,0,1,10.67-16.06,79.24,79.24,0,0,1,6.38-6.66,74.29,74.29,0,0,1,11.82-8.91,75.23,75.23,0,0,1,9.76-5l21-8.24,19-3.69c-4.11-1.08-8.61-2.09-13.48-2.91a152.93,152.93,0,0,0-16.41-1.85c-6.9.84-14.38,1.46-22.37,1.7-5.35.17-10.47.15-15.34,0l31.1-5.75a98.58,98.58,0,0,1,10.8-.24,97.4,97.4,0,0,1,14.11,1.49,54.56,54.56,0,0,1,9.61,1.31c7.09,1.63,8.06,3.38,15.9,5.11,3,.67,9.09,1.71,9.09,1.71L218.64,468.6l-2.28-2.77-22.58-6.6a62.75,62.75,0,0,0-8.9-2.7A70.64,70.64,0,0,0,172.34,455c-8.51-.47-16.76,0-16.76,0h0L138,451.56l-13.35-4.65L116,452.63,104.52,459c-9.84-1.39-19.44-2.73-19.45-2.65l.06,0a33,33,0,0,0,18.47-.57,27.06,27.06,0,0,0,5.4-2.9,51.68,51.68,0,0,0,5.67-4,53.17,53.17,0,0,0,5.4-5C106.28,431,95.93,421.41,95.91,421.43l0,0c.85.85,31.53,21.59,31.53,21.59l13.28,4.68,44.38,2.13,5.25,1.14-33.09-15.91-20.73-13.65L98.48,393.61l-11.36-7.38,27.27,14.2,31,20.17,16.26,10.29c.13-.79.29-1.88.43-3.19a57.65,57.65,0,0,0,.21-8.52,73.43,73.43,0,0,0-.91-8.3c-.33-2.21-.67-4.05-.93-5.35l-3.48-16.6a71.69,71.69,0,0,1,7.45,42.46,35.76,35.76,0,0,0,4.26,3.34c5.58,3.69,10.19,4.35,15.13,6a55,55,0,0,1,13.85,6.89l15.9,8.24L200.74,427.7l-15.91-27.27-18.35-20.74a54.76,54.76,0,0,1-19.14,4.83,56.12,56.12,0,0,1-30.39-1.7q7.49-.35,15.27-.92c3.19-.24,6.33-.5,9.44-.79l21.87-5.68L151,360.1,130.3,320.61a286.25,286.25,0,0,0,20,30.54c4.67,6.23,9.35,11.94,13.92,17.15L180,386.8a17.52,17.52,0,0,0,9.65,7.38q-9.93-25-19.88-50L157,322l-13.92-9.09-7.67-7.38L124.33,303l-6.81-2.27-13.64-10.79a42,42,0,0,0,14.2,8.23,32.32,32.32,0,0,0,11.58,2.13s.73,0,7.17-.42a100.31,100.31,0,0,1-20.17-19.6l-5.12-12.35q-.57-10.73-1.13-21.45L113.8,266c2.32,8.3,5.9,13.22,8.83,16.21,2.56,2.61,8.52,7.74,8.52,7.74a11.93,11.93,0,0,0,1.28-2c.69-1.37,1.3-3.23,1.28-7.25a44.78,44.78,0,0,0-.86-8.09c-.53-3.08-1.42-6.82-1.42-6.82l-5.68-15.9L130.68,260q2.37,8.32,4.73,16.64l.28,15.9a119,119,0,0,0,18,22.73c.46.4,3.16,2.71,4.48,1.91.9-.55.71-2.3.51-4.5-.23-2.49-.54-6.15-.81-10.82q-1-5.22-2-10.45l-8.8-27.27-8-25.85s12.79,30.11,13.35,31.24,3.13,2.56,3.13,2.56a27.09,27.09,0,0,0,4.52-13.14c.32-12.46.66-23.27.85-23.26,0,0,0,0,0,0,.27,1.19,1.4,22.89,1.53,25.37a42.41,42.41,0,0,1-2.22,10.05c-1.23,3.45-2.5,5.5-2.29,9,.12,1.91.55,2.08.64,4.47.12,3.38-.7,4.36-.5,6.82s1,2.28,2.21,5.75c1.26,3.69,2.2,15.45,1.77,11.57l.29,12.5c2.37,6,8.91,22.3,13.15,29.26.37.61,1.69,2.73,2.68,2.48s.68-3.19,2.11-8.23c.42-1.46.53-1.48,1.94-5.33,1.11-3,2-5.72,2.77-7.95q1-5.76,1.91-11.51l.15-24.85,2.27,25.56L186.54,336l9.35-9.12q3.08-3.87,6.2-8.21c3-4.16,5.68-8.23,8.1-12.14l-7.59,15.71a45.39,45.39,0,0,1-17.2,19.16q-2.27,8.23-4.54,16.47l20.17,50c1.05-3.14,1.81-5.82,2.34-7.81a118.34,118.34,0,0,0,3-15.82c.13-1.19.37-3.52.41-6.55,0-1.13,0-2.06,0-2.55-.06-2.8-.24-4.87-.31-5.71-.41-5,0-5.38-.31-8.71-.43-4-2.57-17.46-2.56-18.18h0c.12,0,5.49,28.88,6.1,28.77a9.11,9.11,0,0,0,.15-2.07,82,82,0,0,1-.26,24.33,79,79,0,0,1-2.3,10,29.07,29.07,0,0,0-.16,16.16c3.75,8.77,8,17.93,12.88,27.37,2.83,5.51,5.71,10.79,8.59,15.84A134.37,134.37,0,0,0,238.31,479,132.29,132.29,0,0,0,248.11,491.39Z" transform="translate(-85.07 -36)"/></svg>